/* XPM */
static char *editredo[]={
"15 15 7 1",
". c None",
"a c #000083",
"b c #000483",
"d c #101083",
"e c #181c83",
"# c #313483",
"c c #393883",
"...............",
"...............",
"...............",
"...#aaa........",
"..bbaaaaa....a.",
".ca.....aaa.aa.",
".aa.......aaaa.",
".aa.......aaaa.",
".da......aaaaa.",
"..aa.....aaaaa.",
"...ae..........",
"...............",
"...............",
"...............",
"..............."};
