/* XPM */
static char *editundo[]={
"15 15 7 1",
". c None",
"# c #000083",
"b c #000483",
"d c #101083",
"e c #181c83",
"a c #313483",
"c c #393883",
"...............",
"...............",
"...............",
"........###a...",
".#....#####bb..",
".##.###.....#c.",
".####.......##.",
".####.......##.",
".#####......#d.",
".#####.....##..",
"..........e#...",
"...............",
"...............",
"...............",
"..............."};
