/* XPM */
static char *filenew[]={
"15 15 18 1",
". c None",
"# c #000000",
"m c #080808",
"a c #101010",
"e c #101410",
"l c #313431",
"c c #393c39",
"f c #414441",
"i c #4a484a",
"h c #4a4c4a",
"d c #4a504a",
"k c #6a696a",
"o c #8b898b",
"g c #949194",
"n c #a4a1a4",
"j c #acaaac",
"p c #f6f2f6",
"b c #ffffff",
"...............",
"...######a.....",
"...#bbbbcde....",
"...#bbbbfgha...",
"...#bbbbijklm..",
"...#bbbbnooo#..",
"...#bbbbbbbb#..",
"...#bbbbbbbb#..",
"...#bbbbbbbb#..",
"...#bbbbbbbb#..",
"...#bbbbbbbb#..",
"...#bbbbbbbb#..",
"...#pppppppp#..",
"...##########..",
"..............."};
