/* XPM */
static char *settingblue[]={
"15 15 2 1",
". c None",
"# c #0000ff",
"...............",
"...............",
".....#####.....",
"....#######....",
"...#########...",
"..###########..",
"..###########..",
"..###########..",
"..###########..",
"..###########..",
"...#########...",
"....#######....",
".....#####.....",
"...............",
"..............."};
